{"title":"Love Exchange 2015 Hindi Movies PDVDRip XviD New +Sample ~ ☻rDX☻","uid":12804416,"size":739489429,"categoryP":"video","categoryS":"movies","magnet":"?xt=urn:btih:02fcec7c410999c5881030e0f203d62fd4834155&amp;dn=Love+Exchange+2015+Hindi+Movies+PDVDRip+XviD+New+%2BSample+%7E+%E2%98%BBrDX%E2%98%BB&amp;tr=udp%3A%2F%2Ftracker.leechers-paradise.org%3A6969&amp;tr=udp%3A%2F%2Fzer0day.ch%3A1337&amp;tr=udp%3A%2F%2Fopen.demonii.com%3A1337&amp;tr=udp%3A%2F%2Ftracker.coppersurfer.tk%3A6969&amp;tr=udp%3A%2F%2Fexodus.desync.com%3A6969","seeders":0,"leechers":1,"uploader":"basicssom","files":2,"time":1448104428,"description":"----------------------------------------------------------------\r\nLove Exchange 2015 Hindi Movies PDVDRip XviD AAC New Source with Sample ~ ☻rDX☻\r\n\r\nSCREEN SHOTS &amp; POSTER:\r\n  \nhttp://doctorhosts.com/2015/11/LoveExchange/11.html  \nhttp://doctorhosts.com/2015/11/LoveExchange/1.html  \nhttp://doctorhosts.com/2015/11/LoveExchange/2.html  \nhttp://doctorhosts.com/2015/11/LoveExchange/3.html  \nhttp://doctorhosts.com/2015/11/LoveExchange/4.html  \nhttp://doctorhosts.com/2015/11/LoveExchange/5.html  \nhttp://doctorhosts.com/2015/11/LoveExchange/6.html  \nhttp://doctorhosts.com/2015/11/LoveExchange/7.html  \nhttp://doctorhosts.com/2015/11/LoveExchange/8.html  \nhttp://doctorhosts.com/2015/11/LoveExchange/9.html  \nhttp://doctorhosts.com/2015/11/LoveExchange/10.html\r\n\r\nFormat                                   : Matroska\r\nFormat version                           : Version 4 / Version 2\r\nFile size                                : 690 MiB\r\nDuration                                 : 1h 57mn\r\nOverall bit rate                         : 823 Kbps\r\nMovie name                               : Love Exchange 2015 Hindi Movies PDVDRip XviD AAC New Source ~ rDX ~\r\n\r\nVideo\r\nID                                       : 1\r\nFormat                                   : MPEG-4 Visual\r\nFormat profile                           : Advanced   \r\nFormat settings, BVOP                    : Yes\r\nFormat settings, QPel                    : No\r\nFormat settings, GMC                     : No warppoints\r\nFormat settings, Matrix                  : Default (H.263)\r\nCodec ID                                 : V_MS/VFW/FOURCC / XVID\r\nCodec ID/Hint                            : XviD\r\nDuration                                 : 1h 57mn\r\nBit rate                                 : 679 Kbps\r\nWidth                                    : 640 pixels\r\nHeight                                   : 272 pixels\r\nDisplay aspect ratio                     : 2.35:1\r\nFrame rate mode                          : Constant\r\nFrame rate                               : 25.000 fps\r\nColor space                              : YUV\r\nChroma subsampling                       : 4:2:0\r\nBit depth                                : 8 bits\r\nScan type                                : Progressive\r\nCompression mode                         : Lossy\r\nBits/(Pixel*Frame)                       : 0.156\r\nStream size                              : 569 MiB (82%)\r\nTitle                                    : ~ rDX ~\r\nWriting library                          : XviD 1.2.1 (UTC 2008-12-04)\r\nDefault                                  : Yes\r\nForced                                   : No\r\n\r\nAudio\r\nID                                       : 2\r\nFormat                                   : MPEG Audio\r\nFormat version                           : Version 1\r\nFormat profile                           : Layer 3\r\nMode                                     : Joint stereo\r\nMode extension                           : MS Stereo\r\nCodec ID                                 : A_MPEG/L3\r\nCodec ID/Hint                            : MP3\r\nDuration                                 : 1h 57mn\r\nBit rate mode                            : Constant\r\nBit rate                                 : 128 Kbps\r\nChannel(s)                               : 2 channels\r\nSampling rate                            : 48.0 KHz\r\nCompression mode                         : Lossy\r\nStream size                              : 107 MiB (16%)\r\nTitle                                    : ~ rDX ~\r\nWriting library                          : LAME3.99r\r\nEncoding settings                        : -m j -V 4 -q 2 -lowpass 17 -b 128\r\nDefault                                  : Yes\r\nForced                                   : No\r\n\r\nIMDB                                      \nhttp://www.imdb.com/title/tt5154096/","torrent":{"xt":"urn:btih:02fcec7c410999c5881030e0f203d62fd4834155","amp;dn":"Love+Exchange+2015+Hindi+Movies+PDVDRip+XviD+New+%2BSample+%7E+%E2%98%BBrDX%E2%98%BB","amp;tr":["udp%3A%2F%2Ftracker.leechers-paradise.org%3A6969","udp%3A%2F%2Fzer0day.ch%3A1337","udp%3A%2F%2Fopen.demonii.com%3A1337","udp%3A%2F%2Ftracker.coppersurfer.tk%3A6969","udp%3A%2F%2Fexodus.desync.com%3A6969"],"infoHash":"02fcec7c410999c5881030e0f203d62fd4834155","infoHashBuffer":{"type":"Buffer","data":[2,252,236,124,65,9,153,197,136,16,48,224,242,3,214,47,212,131,65,85]},"announce":[],"urlList":[]}}